<svg id="bd796db7-a390-4d49-bedd-2e77fd0fd870" data-name="Layer 1" xmlns="http://www.w3.org/2000/svg" viewBox="0 0 32.17021 45.8617"><defs><style>.bdf5e147-cef5-43bc-89ea-f47efdb3ef98{fill:#fff;fill-opacity:0.93;}.f7ea5e1b-8cd4-490a-9675-58e6d8ea24ff{fill:#262262;}</style></defs><path class="bdf5e147-cef5-43bc-89ea-f47efdb3ef98" d="M0,0H32.17021V21.44681s-.47872,16.94681-16.0851,24.41489c0,0-14.74468-7.46808-16.08511-24.51064Z"/><path class="f7ea5e1b-8cd4-490a-9675-58e6d8ea24ff" d="M12.89351,12.37773v.71191l-1.4961,3.78418h-.856l1.4961-3.83984H9.62983V11.138h.77588v1.23975Z"/><path class="f7ea5e1b-8cd4-490a-9675-58e6d8ea24ff" d="M17.32563,16.34989a1.69941,1.69941,0,0,1-1.40771.62012,3.10323,3.10323,0,0,1-.688-.08008l.08789-.65625a2.56356,2.56356,0,0,0,.52.064.98748.98748,0,0,0,.88819-.42383,2.25981,2.25981,0,0,0,.27978-1.24024,2.23187,2.23187,0,0,0-.26807-1.252.87969.87969,0,0,0-.76416-.37988.90071.90071,0,0,0-.62793.22021,1.07271,1.07271,0,0,0-.32373.58789l-.53613,3.064h-.856l.57618-3.09619-.624-1.3999h.8877l.36035.94433a1.47983,1.47983,0,0,1,.51172-.75635,1.29349,1.29349,0,0,1,.78418-.25195,1.514,1.514,0,0,1,1.248.55615,2.76,2.76,0,0,1,.44776,1.73975A2.71947,2.71947,0,0,1,17.32563,16.34989Z"/><path class="f7ea5e1b-8cd4-490a-9675-58e6d8ea24ff" d="M21.59761,16.27763a4.66587,4.66587,0,0,1-2.51221.67627L18.62153,13.034l-.08008-.65625h2.3042a1.5065,1.5065,0,0,1,1.15577.43994,1.76941,1.76941,0,0,1,.436,1.20019l.0083.25586A2.16443,2.16443,0,0,1,21.59761,16.27763Zm-.416-.61573a1.805,1.805,0,0,0,.416-1.40429v-.21582a1.15866,1.15866,0,0,0-.21582-.728.71578.71578,0,0,0-.6001-.27978h-1.3042l.35986,3.144A2.14429,2.14429,0,0,0,21.18159,15.6619Z"/><path class="f7ea5e1b-8cd4-490a-9675-58e6d8ea24ff" d="M10.02534,23.57011a1.6043,1.6043,0,0,1,.22412-.936H8.08931v-.65625h3.56836v.65625h-.6001a2.03787,2.03787,0,0,0-.17627.936v2.90381h-.856Z"/><path class="f7ea5e1b-8cd4-490a-9675-58e6d8ea24ff" d="M13.40522,22.42216a.42125.42125,0,0,1,.14014.33154.50593.50593,0,0,1-.13183.36817.46266.46266,0,0,1-.34815.13623.49149.49149,0,0,1-.42383-.21241,1.023,1.023,0,0,1-.15185-.604,1.62664,1.62664,0,0,1,.93554-1.50391l.208.36817a1.52454,1.52454,0,0,0-.48388.43213.99406.99406,0,0,0-.15577.56787.2405.2405,0,0,1,.07178-.00781A.49273.49273,0,0,1,13.40522,22.42216Zm1.55225,0a.42128.42128,0,0,1,.14014.33154.50417.50417,0,0,1-.13233.36817.46151.46151,0,0,1-.34765.13623.49234.49234,0,0,1-.42432-.21241,1.02656,1.02656,0,0,1-.15186-.604,1.62711,1.62711,0,0,1,.936-1.50391l.208.36817a1.5247,1.5247,0,0,0-.48389.43213.99432.99432,0,0,0-.15625.56787.24416.24416,0,0,1,.07227-.00781A.49273.49273,0,0,1,14.95747,22.42216Z"/><path class="f7ea5e1b-8cd4-490a-9675-58e6d8ea24ff" d="M16.145,24.29814l.12012-.53614h.73584v2.71192h-.856Zm2.71191-.86426a.84976.84976,0,0,0-.18408-.61182.71568.71568,0,0,0-.53564-.188H16.1689v-.65625H18.353a1.352,1.352,0,0,1,1,.35987,1.553,1.553,0,0,1,.35986,1.13623v3h-.856Z"/><path class="f7ea5e1b-8cd4-490a-9675-58e6d8ea24ff" d="M24.16157,25.81815v.65577H20.52925v-.65577h2.22412V23.43388a.852.852,0,0,0-.18408-.61182.71614.71614,0,0,0-.53614-.188h-1.5039v-.65625h1.72021a1.35274,1.35274,0,0,1,1,.35987,1.55505,1.55505,0,0,1,.35987,1.13623v2.34423Z"/></svg>