<svg id="a84ef333-38cf-4b41-93bc-534aa4d1fe26" data-name="Layer 1" xmlns="http://www.w3.org/2000/svg" viewBox="0 0 106.84192 100.67795"><defs><style>.b19ce12d-5d5d-4458-89c2-7a8cfa405433{fill:none;stroke:#fff;stroke-linejoin:round;stroke-width:5.70592px;}.fa0676c2-a0b3-4951-9432-b506cb6c76c0{fill:#fff;}</style></defs><path class="b19ce12d-5d5d-4458-89c2-7a8cfa405433" d="M36.75848,23.40758C28.697,19.9942,17.52651,17.81606,2.853,20.28739V90.708s34.46116-7.49155,50.568,7.117c16.10685-14.60853,50.568-7.117,50.568-7.117V20.28739c-14.53075-2.44728-25.62632-.33515-33.66927,3.02088"/><path class="fa0676c2-a0b3-4951-9432-b506cb6c76c0" d="M39.58185,5.58643l37.248,25.41626-37.248,25.41619V5.58643M39.58146,0a5.58647,5.58647,0,0,0-5.586,5.58643V56.41888a5.58637,5.58637,0,0,0,8.73508,4.61451l37.248-25.4162a5.58645,5.58645,0,0,0,0-9.229L42.73057.97192A5.58384,5.58384,0,0,0,39.58146,0Z"/></svg>