<svg id="bff0628b-243b-46e0-ab71-a8c04dbd0e65" data-name="Layer 1" xmlns="http://www.w3.org/2000/svg" viewBox="0 0 45.33605 45.59803"><defs><style>.b0924b3c-812c-4f96-a4a5-6d38781bc74f{fill:#fff;}.a7c2b4bf-abec-46f0-9065-1ca3f4271bf3,.ba0edb74-4c40-4e5c-ae2a-e249a9df01fe,.f706ed8d-8a87-4807-9922-38120456f40e{fill:none;stroke:#fff;stroke-miterlimit:10;}.a7c2b4bf-abec-46f0-9065-1ca3f4271bf3{stroke-width:1.4721px;}.ba0edb74-4c40-4e5c-ae2a-e249a9df01fe{stroke-width:1.6368px;}.f706ed8d-8a87-4807-9922-38120456f40e{stroke-width:1.7405px;}</style></defs><path class="b0924b3c-812c-4f96-a4a5-6d38781bc74f" d="M8.45605,12.698a5.83161,5.83161,0,1,0,6.54,5.81,3.73568,3.73568,0,0,0-.07-.88A27.47673,27.47673,0,0,1,8.45605,12.698Z"/><path class="a7c2b4bf-abec-46f0-9065-1ca3f4271bf3" d="M6.47605,10.488a8.46425,8.46425,0,1,0,11.18,8.24C11.10605,16.598,6.47605,10.488,6.47605,10.488Z"/><path class="b0924b3c-812c-4f96-a4a5-6d38781bc74f" d="M35.39605,12.698a5.79879,5.79879,0,1,1-6.54,5.74,3.73568,3.73568,0,0,1,.07-.88A26.58449,26.58449,0,0,0,35.39605,12.698Z"/><path class="a7c2b4bf-abec-46f0-9065-1ca3f4271bf3" d="M37.38605,10.488a8.46425,8.46425,0,1,1-11.18,8.24C32.746,16.598,37.38605,10.488,37.38605,10.488Z"/><path class="a7c2b4bf-abec-46f0-9065-1ca3f4271bf3" d="M6.47605,10.488s6.7,8.91,15.46,8.91c7.43,0,11.78-5.3,22.16-15.97"/><path class="a7c2b4bf-abec-46f0-9065-1ca3f4271bf3" d="M21.78605,13.798a4.09968,4.09968,0,0,0-4.12,4.27,2.02569,2.02569,0,0,0,.22.59,10.68183,10.68183,0,0,0,4.12.66,15.16459,15.16459,0,0,0,4.2-.59,2.12229,2.12229,0,0,0,.07-.66A4.46767,4.46767,0,0,0,21.78605,13.798Z"/><path class="a7c2b4bf-abec-46f0-9065-1ca3f4271bf3" d="M13.61605,12.698s7.66-7.73,16.64,0"/><path class="ba0edb74-4c40-4e5c-ae2a-e249a9df01fe" d="M10.66605,9.528s10.6-10.3,22.52,0"/><path class="f706ed8d-8a87-4807-9922-38120456f40e" d="M7.65605,6.728s13.84-13.18,28.26,0"/><polygon class="b0924b3c-812c-4f96-a4a5-6d38781bc74f" points="19.726 23.288 24.286 23.288 21.926 26.978 19.726 23.288"/><path class="b0924b3c-812c-4f96-a4a5-6d38781bc74f" d="M42.46605,2.828l2.87-.88-.59,2.94C44.746,4.968,44.08605,3.048,42.46605,2.828Z"/><path class="b0924b3c-812c-4f96-a4a5-6d38781bc74f" d="M3.08605,40.888a1.15025,1.15025,0,0,1,.07.52v2.72h-.51v-2.72c0-.59-.37-.88-1.1-.88h-1.26v-.44c.44,0,.88-.07,1.32-.07a3.06506,3.06506,0,0,1,.96.15A1.09136,1.09136,0,0,1,3.08605,40.888Zm-2.28,3.24h-.52v-2.5h.52Z"/><path class="b0924b3c-812c-4f96-a4a5-6d38781bc74f" d="M4.85605,40.148c.15,0,.29-.07.52-.07a.815.815,0,0,1,.44.07c.15.07.29.07.37.15.07.07.22.15.29.22s.15.22.22.29.07.22.15.29a1.70559,1.70559,0,0,1,.07.59v1.03a3.5668,3.5668,0,0,1-.07.37,1.16805,1.16805,0,0,1-.15.37.54841.54841,0,0,1-.29.29,1.49691,1.49691,0,0,1-.37.22,1.33555,1.33555,0,0,1-.52.07h-.52c-.15,0-.22-.07-.29-.07h-.07v-.44a3.86206,3.86206,0,0,0,.88.15.69967.69967,0,0,0,.37-.07c.07,0,.22-.07.22-.15.07-.07.15-.15.15-.22.07-.07.07-.15.15-.22a.2777.2777,0,0,0,.07-.22,3.5668,3.5668,0,0,1,.07-.37v-.59a1.91226,1.91226,0,0,0-.07-.66c0-.07-.07-.15-.15-.22-.07-.07-.07-.15-.15-.22-.07-.07-.15-.07-.29-.15a1.47461,1.47461,0,0,0-.59-.07.96989.96989,0,0,0-.44.07c-.15,0-.22.07-.29.07l-.07.07v-.44a.06856.06856,0,0,0,.07-.07A.679.679,0,0,1,4.85605,40.148Z"/><path class="b0924b3c-812c-4f96-a4a5-6d38781bc74f" d="M7.87605,40.148h.74a1.51891,1.51891,0,0,1,.59.07.9639.9639,0,0,1,.44.15,1.079,1.079,0,0,1,.29.22,1.11261,1.11261,0,0,1,.29.81v2.72h-.51v-2.72c0-.52-.37-.81-1.1-.81h-.74Z"/><path class="b0924b3c-812c-4f96-a4a5-6d38781bc74f" d="M14.34605,40.148v.37a.86513.86513,0,0,0-.66.88v2.72h-.52v-2.72a.69963.69963,0,0,1,.07-.37c0-.07.07-.15.07-.22.07-.15.15-.22.22-.22h-2.06v-.37h2.87v-.07Z"/><path class="b0924b3c-812c-4f96-a4a5-6d38781bc74f" d="M18.39605,40.888a1.15025,1.15025,0,0,1,.07.52v2.72h-.52v-2.72c0-.52-.37-.81-1.1-.81h-1.25v-.44c.44,0,.88-.07,1.32-.07a3.06506,3.06506,0,0,1,.96.15A.951.951,0,0,1,18.39605,40.888Zm-2.28,3.24h-.52v-2.5h.52Z"/><path class="b0924b3c-812c-4f96-a4a5-6d38781bc74f" d="M22.88605,40.888a1.15025,1.15025,0,0,1,.07.52v2.72h-.52v-2.72c0-.52-.37-.81-1.1-.81h-1.25v-.44c.44,0,.88-.07,1.32-.07a3.06506,3.06506,0,0,1,.96.15C22.58605,40.318,22.73605,40.588,22.88605,40.888Zm-2.35,3.24h-.52v-2.5h.52Z"/><path class="b0924b3c-812c-4f96-a4a5-6d38781bc74f" d="M28.33605,44.128a.448.448,0,0,1-.29-.07v-.44h.22c.29,0,.44-.15.44-.52v-2.58l-.44.07v-.44a11.44018,11.44018,0,0,1,1.47-.07,2.54,2.54,0,0,1,.88.15.85075.85075,0,0,1,.52.59,1.15025,1.15025,0,0,1,.07.52v2.72h-.52v-2.72c0-.52-.37-.81-1.1-.81h-.52v2.58a1.108,1.108,0,0,1-.22.74C28.92605,44.048,28.62605,44.128,28.33605,44.128Z"/><path class="b0924b3c-812c-4f96-a4a5-6d38781bc74f" d="M32.89605,42.798v-2.58h.52v2.06l-.37.52Z"/><path class="b0924b3c-812c-4f96-a4a5-6d38781bc74f" d="M34.88605,42.798v-2.58h.52v2.06l-.37.52Z"/><path class="b0924b3c-812c-4f96-a4a5-6d38781bc74f" d="M36.57605,40.148h.74a1.51891,1.51891,0,0,1,.59.07.9639.9639,0,0,1,.44.15.90709.90709,0,0,1,.29.22,1.11261,1.11261,0,0,1,.29.81v2.72h-.52v-2.72c0-.52-.37-.81-1.1-.81h-.74v-.44Z"/><path class="b0924b3c-812c-4f96-a4a5-6d38781bc74f" d="M42.53605,43.978v.07h-.52v-.07a1.91382,1.91382,0,0,1,.07-.59,3.28087,3.28087,0,0,0,.15-.52c.07-.22.15-.52.22-.81l.44-1.47h-2.43v-.37h2.87v.29l-.44,1.55c-.07.22-.07.37-.15.44,0,.15-.07.22-.07.37s-.07.22-.07.29-.07.22-.07.29Zm-1.47,1.62h-.52v-3.83h.52Z"/><path class="b0924b3c-812c-4f96-a4a5-6d38781bc74f" d="M3.08605,40.888a1.15025,1.15025,0,0,1,.07.52v2.72h-.51v-2.72c0-.59-.37-.88-1.1-.88h-1.26v-.44c.44,0,.88-.07,1.32-.07a3.06506,3.06506,0,0,1,.96.15A1.09136,1.09136,0,0,1,3.08605,40.888Zm-2.28,3.24h-.52v-2.5h.52Z"/><path class="b0924b3c-812c-4f96-a4a5-6d38781bc74f" d="M4.85605,40.148c.15,0,.29-.07.52-.07a.815.815,0,0,1,.44.07c.15.07.29.07.37.15.07.07.22.15.29.22s.15.22.22.29.07.22.15.29a1.70559,1.70559,0,0,1,.07.59v1.03a3.5668,3.5668,0,0,1-.07.37,1.16805,1.16805,0,0,1-.15.37.54841.54841,0,0,1-.29.29,1.49691,1.49691,0,0,1-.37.22,1.33555,1.33555,0,0,1-.52.07h-.52c-.15,0-.22-.07-.29-.07h-.07v-.44a3.86206,3.86206,0,0,0,.88.15.69967.69967,0,0,0,.37-.07c.07,0,.22-.07.22-.15.07-.07.15-.15.15-.22.07-.07.07-.15.15-.22a.2777.2777,0,0,0,.07-.22,3.5668,3.5668,0,0,1,.07-.37v-.59a1.91226,1.91226,0,0,0-.07-.66c0-.07-.07-.15-.15-.22-.07-.07-.07-.15-.15-.22-.07-.07-.15-.07-.29-.15a1.47461,1.47461,0,0,0-.59-.07.96989.96989,0,0,0-.44.07c-.15,0-.22.07-.29.07l-.07.07v-.44a.06856.06856,0,0,0,.07-.07A.679.679,0,0,1,4.85605,40.148Z"/><path class="b0924b3c-812c-4f96-a4a5-6d38781bc74f" d="M7.87605,40.148h.74a1.51891,1.51891,0,0,1,.59.07.9639.9639,0,0,1,.44.15,1.079,1.079,0,0,1,.29.22,1.11261,1.11261,0,0,1,.29.81v2.72h-.51v-2.72c0-.52-.37-.81-1.1-.81h-.74Z"/><path class="b0924b3c-812c-4f96-a4a5-6d38781bc74f" d="M14.34605,40.148v.37a.86513.86513,0,0,0-.66.88v2.72h-.52v-2.72a.69963.69963,0,0,1,.07-.37c0-.07.07-.15.07-.22.07-.15.15-.22.22-.22h-2.06v-.37h2.87v-.07Z"/><path class="b0924b3c-812c-4f96-a4a5-6d38781bc74f" d="M18.39605,40.888a1.15025,1.15025,0,0,1,.07.52v2.72h-.52v-2.72c0-.52-.37-.81-1.1-.81h-1.25v-.44c.44,0,.88-.07,1.32-.07a3.06506,3.06506,0,0,1,.96.15A.951.951,0,0,1,18.39605,40.888Zm-2.28,3.24h-.52v-2.5h.52Z"/><path class="b0924b3c-812c-4f96-a4a5-6d38781bc74f" d="M22.88605,40.888a1.15025,1.15025,0,0,1,.07.52v2.72h-.52v-2.72c0-.52-.37-.81-1.1-.81h-1.25v-.44c.44,0,.88-.07,1.32-.07a3.06506,3.06506,0,0,1,.96.15C22.58605,40.318,22.73605,40.588,22.88605,40.888Zm-2.35,3.24h-.52v-2.5h.52Z"/><path class="b0924b3c-812c-4f96-a4a5-6d38781bc74f" d="M28.33605,44.128a.448.448,0,0,1-.29-.07v-.44h.22c.29,0,.44-.15.44-.52v-2.58l-.44.07v-.44a11.44018,11.44018,0,0,1,1.47-.07,2.54,2.54,0,0,1,.88.15.85075.85075,0,0,1,.52.59,1.15025,1.15025,0,0,1,.07.52v2.72h-.52v-2.72c0-.52-.37-.81-1.1-.81h-.52v2.58a1.108,1.108,0,0,1-.22.74C28.92605,44.048,28.62605,44.128,28.33605,44.128Z"/><path class="b0924b3c-812c-4f96-a4a5-6d38781bc74f" d="M32.89605,42.798v-2.58h.52v2.06l-.37.52Z"/><path class="b0924b3c-812c-4f96-a4a5-6d38781bc74f" d="M34.88605,42.798v-2.58h.52v2.06l-.37.52Z"/><path class="b0924b3c-812c-4f96-a4a5-6d38781bc74f" d="M36.57605,40.148h.74a1.51891,1.51891,0,0,1,.59.07.9639.9639,0,0,1,.44.15.90709.90709,0,0,1,.29.22,1.11261,1.11261,0,0,1,.29.81v2.72h-.52v-2.72c0-.52-.37-.81-1.1-.81h-.74v-.44Z"/><path class="b0924b3c-812c-4f96-a4a5-6d38781bc74f" d="M42.53605,43.978v.07h-.52v-.07a1.91382,1.91382,0,0,1,.07-.59,3.28087,3.28087,0,0,0,.15-.52c.07-.22.15-.52.22-.81l.44-1.47h-2.43v-.37h2.87v.29l-.44,1.55c-.07.22-.07.37-.15.44,0,.15-.07.22-.07.37s-.07.22-.07.29-.07.22-.07.29Zm-1.47,1.62h-.52v-3.83h.52Z"/><path class="b0924b3c-812c-4f96-a4a5-6d38781bc74f" d="M3.08605,40.888a1.15025,1.15025,0,0,1,.07.52v2.72h-.51v-2.72c0-.59-.37-.88-1.1-.88h-1.26v-.44c.44,0,.88-.07,1.32-.07a3.06506,3.06506,0,0,1,.96.15A1.09136,1.09136,0,0,1,3.08605,40.888Zm-2.28,3.24h-.52v-2.5h.52Z"/><path class="b0924b3c-812c-4f96-a4a5-6d38781bc74f" d="M4.85605,40.148c.15,0,.29-.07.52-.07a.815.815,0,0,1,.44.07c.15.07.29.07.37.15.07.07.22.15.29.22s.15.22.22.29.07.22.15.29a1.70559,1.70559,0,0,1,.07.59v1.03a3.5668,3.5668,0,0,1-.07.37,1.16805,1.16805,0,0,1-.15.37.54841.54841,0,0,1-.29.29,1.49691,1.49691,0,0,1-.37.22,1.33555,1.33555,0,0,1-.52.07h-.52c-.15,0-.22-.07-.29-.07h-.07v-.44a3.86206,3.86206,0,0,0,.88.15.69967.69967,0,0,0,.37-.07c.07,0,.22-.07.22-.15.07-.07.15-.15.15-.22.07-.07.07-.15.15-.22a.2777.2777,0,0,0,.07-.22,3.5668,3.5668,0,0,1,.07-.37v-.59a1.91226,1.91226,0,0,0-.07-.66c0-.07-.07-.15-.15-.22-.07-.07-.07-.15-.15-.22-.07-.07-.15-.07-.29-.15a1.47461,1.47461,0,0,0-.59-.07.96989.96989,0,0,0-.44.07c-.15,0-.22.07-.29.07l-.07.07v-.44a.06856.06856,0,0,0,.07-.07A.679.679,0,0,1,4.85605,40.148Z"/><path class="b0924b3c-812c-4f96-a4a5-6d38781bc74f" d="M7.87605,40.148h.74a1.51891,1.51891,0,0,1,.59.07.9639.9639,0,0,1,.44.15,1.079,1.079,0,0,1,.29.22,1.11261,1.11261,0,0,1,.29.81v2.72h-.51v-2.72c0-.52-.37-.81-1.1-.81h-.74Z"/><path class="b0924b3c-812c-4f96-a4a5-6d38781bc74f" d="M14.34605,40.148v.37a.86513.86513,0,0,0-.66.88v2.72h-.52v-2.72a.69963.69963,0,0,1,.07-.37c0-.07.07-.15.07-.22.07-.15.15-.22.22-.22h-2.06v-.37h2.87v-.07Z"/><path class="b0924b3c-812c-4f96-a4a5-6d38781bc74f" d="M18.39605,40.888a1.15025,1.15025,0,0,1,.07.52v2.72h-.52v-2.72c0-.52-.37-.81-1.1-.81h-1.25v-.44c.44,0,.88-.07,1.32-.07a3.06506,3.06506,0,0,1,.96.15A.951.951,0,0,1,18.39605,40.888Zm-2.28,3.24h-.52v-2.5h.52Z"/><path class="b0924b3c-812c-4f96-a4a5-6d38781bc74f" d="M22.88605,40.888a1.15025,1.15025,0,0,1,.07.52v2.72h-.52v-2.72c0-.52-.37-.81-1.1-.81h-1.25v-.44c.44,0,.88-.07,1.32-.07a3.06506,3.06506,0,0,1,.96.15C22.58605,40.318,22.73605,40.588,22.88605,40.888Zm-2.35,3.24h-.52v-2.5h.52Z"/><path class="b0924b3c-812c-4f96-a4a5-6d38781bc74f" d="M28.33605,44.128a.448.448,0,0,1-.29-.07v-.44h.22c.29,0,.44-.15.44-.52v-2.58l-.44.07v-.44a11.44018,11.44018,0,0,1,1.47-.07,2.54,2.54,0,0,1,.88.15.85075.85075,0,0,1,.52.59,1.15025,1.15025,0,0,1,.07.52v2.72h-.52v-2.72c0-.52-.37-.81-1.1-.81h-.52v2.58a1.108,1.108,0,0,1-.22.74C28.92605,44.048,28.62605,44.128,28.33605,44.128Z"/><path class="b0924b3c-812c-4f96-a4a5-6d38781bc74f" d="M32.89605,42.798v-2.58h.52v2.06l-.37.52Z"/><path class="b0924b3c-812c-4f96-a4a5-6d38781bc74f" d="M34.88605,42.798v-2.58h.52v2.06l-.37.52Z"/><path class="b0924b3c-812c-4f96-a4a5-6d38781bc74f" d="M36.57605,40.148h.74a1.51891,1.51891,0,0,1,.59.07.9639.9639,0,0,1,.44.15.90709.90709,0,0,1,.29.22,1.11261,1.11261,0,0,1,.29.81v2.72h-.52v-2.72c0-.52-.37-.81-1.1-.81h-.74v-.44Z"/><path class="b0924b3c-812c-4f96-a4a5-6d38781bc74f" d="M42.53605,43.978v.07h-.52v-.07a1.91382,1.91382,0,0,1,.07-.59,3.28087,3.28087,0,0,0,.15-.52c.07-.22.15-.52.22-.81l.44-1.47h-2.43v-.37h2.87v.29l-.44,1.55c-.07.22-.07.37-.15.44,0,.15-.07.22-.07.37s-.07.22-.07.29-.07.22-.07.29Zm-1.47,1.62h-.52v-3.83h.52Z"/><path class="b0924b3c-812c-4f96-a4a5-6d38781bc74f" d="M3.08605,40.888a1.15025,1.15025,0,0,1,.07.52v2.72h-.51v-2.72c0-.59-.37-.88-1.1-.88h-1.26v-.44c.44,0,.88-.07,1.32-.07a3.06506,3.06506,0,0,1,.96.15A1.09136,1.09136,0,0,1,3.08605,40.888Zm-2.28,3.24h-.52v-2.5h.52Z"/><path class="b0924b3c-812c-4f96-a4a5-6d38781bc74f" d="M4.85605,40.148c.15,0,.29-.07.52-.07a.815.815,0,0,1,.44.07c.15.07.29.07.37.15.07.07.22.15.29.22s.15.22.22.29.07.22.15.29a1.70559,1.70559,0,0,1,.07.59v1.03a3.5668,3.5668,0,0,1-.07.37,1.16805,1.16805,0,0,1-.15.37.54841.54841,0,0,1-.29.29,1.49691,1.49691,0,0,1-.37.22,1.33555,1.33555,0,0,1-.52.07h-.52c-.15,0-.22-.07-.29-.07h-.07v-.44a3.86206,3.86206,0,0,0,.88.15.69967.69967,0,0,0,.37-.07c.07,0,.22-.07.22-.15.07-.07.15-.15.15-.22.07-.07.07-.15.15-.22a.2777.2777,0,0,0,.07-.22,3.5668,3.5668,0,0,1,.07-.37v-.59a1.91226,1.91226,0,0,0-.07-.66c0-.07-.07-.15-.15-.22-.07-.07-.07-.15-.15-.22-.07-.07-.15-.07-.29-.15a1.47461,1.47461,0,0,0-.59-.07.96989.96989,0,0,0-.44.07c-.15,0-.22.07-.29.07l-.07.07v-.44a.06856.06856,0,0,0,.07-.07A.679.679,0,0,1,4.85605,40.148Z"/><path class="b0924b3c-812c-4f96-a4a5-6d38781bc74f" d="M7.87605,40.148h.74a1.51891,1.51891,0,0,1,.59.07.9639.9639,0,0,1,.44.15,1.079,1.079,0,0,1,.29.22,1.11261,1.11261,0,0,1,.29.81v2.72h-.51v-2.72c0-.52-.37-.81-1.1-.81h-.74Z"/><path class="b0924b3c-812c-4f96-a4a5-6d38781bc74f" d="M14.34605,40.148v.37a.86513.86513,0,0,0-.66.88v2.72h-.52v-2.72a.69963.69963,0,0,1,.07-.37c0-.07.07-.15.07-.22.07-.15.15-.22.22-.22h-2.06v-.37h2.87v-.07Z"/><path class="b0924b3c-812c-4f96-a4a5-6d38781bc74f" d="M18.39605,40.888a1.15025,1.15025,0,0,1,.07.52v2.72h-.52v-2.72c0-.52-.37-.81-1.1-.81h-1.25v-.44c.44,0,.88-.07,1.32-.07a3.06506,3.06506,0,0,1,.96.15A.951.951,0,0,1,18.39605,40.888Zm-2.28,3.24h-.52v-2.5h.52Z"/><path class="b0924b3c-812c-4f96-a4a5-6d38781bc74f" d="M22.88605,40.888a1.15025,1.15025,0,0,1,.07.52v2.72h-.52v-2.72c0-.52-.37-.81-1.1-.81h-1.25v-.44c.44,0,.88-.07,1.32-.07a3.06506,3.06506,0,0,1,.96.15C22.58605,40.318,22.73605,40.588,22.88605,40.888Zm-2.35,3.24h-.52v-2.5h.52Z"/><path class="b0924b3c-812c-4f96-a4a5-6d38781bc74f" d="M28.33605,44.128a.448.448,0,0,1-.29-.07v-.44h.22c.29,0,.44-.15.44-.52v-2.58l-.44.07v-.44a11.44018,11.44018,0,0,1,1.47-.07,2.54,2.54,0,0,1,.88.15.85075.85075,0,0,1,.52.59,1.15025,1.15025,0,0,1,.07.52v2.72h-.52v-2.72c0-.52-.37-.81-1.1-.81h-.52v2.58a1.108,1.108,0,0,1-.22.74C28.92605,44.048,28.62605,44.128,28.33605,44.128Z"/><path class="b0924b3c-812c-4f96-a4a5-6d38781bc74f" d="M32.89605,42.798v-2.58h.52v2.06l-.37.52Z"/><path class="b0924b3c-812c-4f96-a4a5-6d38781bc74f" d="M34.88605,42.798v-2.58h.52v2.06l-.37.52Z"/><path class="b0924b3c-812c-4f96-a4a5-6d38781bc74f" d="M36.57605,40.148h.74a1.51891,1.51891,0,0,1,.59.07.9639.9639,0,0,1,.44.15.90709.90709,0,0,1,.29.22,1.11261,1.11261,0,0,1,.29.81v2.72h-.52v-2.72c0-.52-.37-.81-1.1-.81h-.74v-.44Z"/><path class="b0924b3c-812c-4f96-a4a5-6d38781bc74f" d="M42.53605,43.978v.07h-.52v-.07a1.91382,1.91382,0,0,1,.07-.59,3.28087,3.28087,0,0,0,.15-.52c.07-.22.15-.52.22-.81l.44-1.47h-2.43v-.37h2.87v.29l-.44,1.55c-.07.22-.07.37-.15.44,0,.15-.07.22-.07.37s-.07.22-.07.29-.07.22-.07.29Zm-1.47,1.62h-.52v-3.83h.52Z"/><path class="b0924b3c-812c-4f96-a4a5-6d38781bc74f" d="M1.90605,32.268h2.58v.96l-.66,2.28h0l-.44,1.91h-1.48l.44-1.99.59-1.99h-2.57v-2.21h1.55v1.04Z"/><path class="b0924b3c-812c-4f96-a4a5-6d38781bc74f" d="M6.25605,31.688h1.1c-.15.81-.29,1.55-.37,2.28h-1.4v-.07A9.89184,9.89184,0,0,1,6.25605,31.688Zm1.98,0h1.1c-.15.81-.29,1.55-.37,2.28h-1.31l-.07-.07C7.87605,32.858,8.09605,32.128,8.23605,31.688Z"/><path class="b0924b3c-812c-4f96-a4a5-6d38781bc74f" d="M10.81605,35.808v-3.46h1.55v2.36l-.88,1.1Z"/><path class="b0924b3c-812c-4f96-a4a5-6d38781bc74f" d="M16.26605,32.268c.22,0,.44-.07.66-.07a1.70559,1.70559,0,0,1,.59.07,3.87277,3.87277,0,0,1,.52.22,1.06782,1.06782,0,0,1,.37.44,3.8526,3.8526,0,0,1,.29,1.77,3.04609,3.04609,0,0,1-.59,1.99,2.16781,2.16781,0,0,1-1.69.74,3.38267,3.38267,0,0,1-.88-.15,1.53552,1.53552,0,0,1-.66-.52,1.6736,1.6736,0,0,1-.44-.88,2.81607,2.81607,0,0,1-.15-1.1v-2.5h1.55v2.5c0,.96.22,1.47.66,1.47a.57006.57006,0,0,0,.52-.37,2.15386,2.15386,0,0,0,.15-1.1,3.37112,3.37112,0,0,0-.15-1.1.48759.48759,0,0,0-.52-.29h-.22v-1.12Z"/><path class="b0924b3c-812c-4f96-a4a5-6d38781bc74f" d="M24.506,32.348a10.43382,10.43382,0,0,1,1.4-.07,3.79285,3.79285,0,0,1,.96.07c.22.07.44.07.59.22a.76776.76776,0,0,1,.37.29,1.49691,1.49691,0,0,1,.22.37c.07.15.07.29.15.44v3.83h-1.55v-3.24c0-.52-.29-.74-.81-.74a10.4353,10.4353,0,0,0-1.4.07v-1.25h.07Z"/><path class="b0924b3c-812c-4f96-a4a5-6d38781bc74f" d="M31.64605,37.428h-1.55v-5.15h1.55Z"/><path class="b0924b3c-812c-4f96-a4a5-6d38781bc74f" d="M37.38605,32.268v1.1a.7472.7472,0,0,0-.52.37,1.46224,1.46224,0,0,0-.15.59v3.09h-1.55v-3.09a1.05513,1.05513,0,0,1,.37-.81h-2.43v-1.18h4.27v-.07Z"/><path class="b0924b3c-812c-4f96-a4a5-6d38781bc74f" d="M40.03605,32.268a1.10178,1.10178,0,0,1,.15.52h.07l.22-.22c.07-.07.22-.15.29-.22s.22-.07.37-.15a1.51891,1.51891,0,0,1,.59-.07,1.31666,1.31666,0,0,1,.59.15,1.94081,1.94081,0,0,1,.52.29,1.10448,1.10448,0,0,1,.29.52,3.66763,3.66763,0,0,1,.22,1.4v2.87h-2.43v-1.18h.88v-1.69a1.34784,1.34784,0,0,0-.07-.59c-.07-.15-.07-.22-.15-.29a.69242.69242,0,0,0-.81-.15c-.07,0-.15.07-.22.15-.15.15-.22.22-.22.29v.07l-.15,3.46h-1.55l.29-3.24v-.52a4.06143,4.06143,0,0,0-.22-1.32h1.32v-.08Z"/></svg>